<?xml version="1.0" encoding="UTF-8" standalone="no"?>
<svg width="512" height="512" viewBox="0 0 512 512" fill="none" xmlns="http://www.w3.org/2000/svg">
  <rect width="512" height="512" rx="100" fill="#4CAF50" />
  <g transform="translate(80, 80) scale(0.7)">
    <!-- Newspaper base -->
    <rect x="50" y="100" width="350" height="250" rx="10" fill="white" />
    
    <!-- Newspaper fold -->
    <path d="M350 100 L350 350 L400 300 L400 50 L350 100 Z" fill="#e0e0e0" />
    <path d="M350 100 L400 50" stroke="#aaaaaa" stroke-width="3" />
    
    <!-- Newspaper lines -->
    <rect x="80" y="140" width="240" height="20" rx="5" fill="#444444" />
    <rect x="80" y="180" width="290" height="10" rx="5" fill="#888888" />
    <rect x="80" y="200" width="290" height="10" rx="5" fill="#888888" />
    <rect x="80" y="220" width="290" height="10" rx="5" fill="#888888" />
    <rect x="80" y="240" width="190" height="10" rx="5" fill="#888888" />
    
    <rect x="80" y="270" width="150" height="20" rx="5" fill="#4CAF50" />
    <rect x="80" y="300" width="290" height="10" rx="5" fill="#888888" />
    <rect x="80" y="320" width="290" height="10" rx="5" fill="#888888" />
    
    <!-- Magnifying glass -->
    <circle cx="350" cy="260" r="50" fill="none" stroke="#444444" stroke-width="15" />
    <path d="M390 300 L420 330" stroke="#444444" stroke-width="15" stroke-linecap="round" />
    
    <!-- Download arrow -->
    <path d="M240 400 L240 470 L210 440 L240 470 L270 440 Z" fill="#4CAF50" stroke="#2E7D32" stroke-width="8" stroke-linejoin="round" />
  </g>
</svg> 